<mxfile host="app.diagrams.net" modified="2024-01-27T10:30:41.612Z" agent="Mozilla/5.0 (Windows NT 10.0; Win64; x64) AppleWebKit/537.36 (KHTML, like Gecko) Chrome/120.0.0.0 Safari/537.36" etag="NDncwaMQ5OLBANmjiCEV" version="22.1.21" type="github">
  <diagram id="C5RBs43oDa-KdzZeNtuy" name="Page-1">
    <mxGraphModel dx="1562" dy="844" grid="1" gridSize="10" guides="1" tooltips="1" connect="1" arrows="1" fold="1" page="1" pageScale="1" pageWidth="827" pageHeight="1169" math="0" shadow="0">
      <root>
        <mxCell id="WIyWlLk6GJQsqaUBKTNV-0" />
        <mxCell id="WIyWlLk6GJQsqaUBKTNV-1" parent="WIyWlLk6GJQsqaUBKTNV-0" />
        <mxCell id="aizszBBcRGnNYX09PEaP-47" value="" style="group" vertex="1" connectable="0" parent="WIyWlLk6GJQsqaUBKTNV-1">
          <mxGeometry x="100" y="40" width="560" height="428" as="geometry" />
        </mxCell>
        <mxCell id="aizszBBcRGnNYX09PEaP-1" value="&amp;lt;&amp;lt;interface&amp;gt;&amp;gt;&lt;br&gt;Mediator" style="swimlane;fontStyle=0;childLayout=stackLayout;horizontal=1;startSize=50;fillColor=none;horizontalStack=0;resizeParent=1;resizeParentMax=0;resizeLast=0;collapsible=1;marginBottom=0;whiteSpace=wrap;html=1;" vertex="1" parent="aizszBBcRGnNYX09PEaP-47">
          <mxGeometry x="220" y="19" width="157" height="76" as="geometry" />
        </mxCell>
        <mxCell id="aizszBBcRGnNYX09PEaP-4" value="+ notify(sender)" style="text;strokeColor=none;fillColor=none;align=left;verticalAlign=top;spacingLeft=4;spacingRight=4;overflow=hidden;rotatable=0;points=[[0,0.5],[1,0.5]];portConstraint=eastwest;whiteSpace=wrap;html=1;" vertex="1" parent="aizszBBcRGnNYX09PEaP-1">
          <mxGeometry y="50" width="157" height="26" as="geometry" />
        </mxCell>
        <mxCell id="aizszBBcRGnNYX09PEaP-39" style="rounded=0;orthogonalLoop=1;jettySize=auto;html=1;entryX=0;entryY=0.5;entryDx=0;entryDy=0;" edge="1" parent="aizszBBcRGnNYX09PEaP-47" source="aizszBBcRGnNYX09PEaP-5" target="aizszBBcRGnNYX09PEaP-1">
          <mxGeometry relative="1" as="geometry" />
        </mxCell>
        <mxCell id="aizszBBcRGnNYX09PEaP-5" value="ComponentA" style="swimlane;fontStyle=2;align=center;verticalAlign=top;childLayout=stackLayout;horizontal=1;startSize=26;horizontalStack=0;resizeParent=1;resizeLast=0;collapsible=1;marginBottom=0;rounded=0;shadow=0;strokeWidth=1;" vertex="1" parent="aizszBBcRGnNYX09PEaP-47">
          <mxGeometry x="60" width="110" height="100" as="geometry">
            <mxRectangle x="230" y="140" width="160" height="26" as="alternateBounds" />
          </mxGeometry>
        </mxCell>
        <mxCell id="aizszBBcRGnNYX09PEaP-6" value="- m: Mediator" style="text;align=left;verticalAlign=top;spacingLeft=4;spacingRight=4;overflow=hidden;rotatable=0;points=[[0,0.5],[1,0.5]];portConstraint=eastwest;" vertex="1" parent="aizszBBcRGnNYX09PEaP-5">
          <mxGeometry y="26" width="110" height="26" as="geometry" />
        </mxCell>
        <mxCell id="aizszBBcRGnNYX09PEaP-9" value="" style="line;html=1;strokeWidth=1;align=left;verticalAlign=middle;spacingTop=-1;spacingLeft=3;spacingRight=3;rotatable=0;labelPosition=right;points=[];portConstraint=eastwest;" vertex="1" parent="aizszBBcRGnNYX09PEaP-5">
          <mxGeometry y="52" width="110" height="8" as="geometry" />
        </mxCell>
        <mxCell id="aizszBBcRGnNYX09PEaP-7" value="+ operationA()" style="text;align=left;verticalAlign=top;spacingLeft=4;spacingRight=4;overflow=hidden;rotatable=0;points=[[0,0.5],[1,0.5]];portConstraint=eastwest;rounded=0;shadow=0;html=0;" vertex="1" parent="aizszBBcRGnNYX09PEaP-5">
          <mxGeometry y="60" width="110" height="26" as="geometry" />
        </mxCell>
        <mxCell id="aizszBBcRGnNYX09PEaP-40" style="rounded=0;orthogonalLoop=1;jettySize=auto;html=1;entryX=0;entryY=0.5;entryDx=0;entryDy=0;" edge="1" parent="aizszBBcRGnNYX09PEaP-47" source="aizszBBcRGnNYX09PEaP-10" target="aizszBBcRGnNYX09PEaP-4">
          <mxGeometry relative="1" as="geometry" />
        </mxCell>
        <mxCell id="aizszBBcRGnNYX09PEaP-10" value="ComponentB" style="swimlane;fontStyle=2;align=center;verticalAlign=top;childLayout=stackLayout;horizontal=1;startSize=26;horizontalStack=0;resizeParent=1;resizeLast=0;collapsible=1;marginBottom=0;rounded=0;shadow=0;strokeWidth=1;" vertex="1" parent="aizszBBcRGnNYX09PEaP-47">
          <mxGeometry x="60" y="116" width="110" height="100" as="geometry">
            <mxRectangle x="230" y="140" width="160" height="26" as="alternateBounds" />
          </mxGeometry>
        </mxCell>
        <mxCell id="aizszBBcRGnNYX09PEaP-11" value="- m: Mediator" style="text;align=left;verticalAlign=top;spacingLeft=4;spacingRight=4;overflow=hidden;rotatable=0;points=[[0,0.5],[1,0.5]];portConstraint=eastwest;" vertex="1" parent="aizszBBcRGnNYX09PEaP-10">
          <mxGeometry y="26" width="110" height="26" as="geometry" />
        </mxCell>
        <mxCell id="aizszBBcRGnNYX09PEaP-12" value="" style="line;html=1;strokeWidth=1;align=left;verticalAlign=middle;spacingTop=-1;spacingLeft=3;spacingRight=3;rotatable=0;labelPosition=right;points=[];portConstraint=eastwest;" vertex="1" parent="aizszBBcRGnNYX09PEaP-10">
          <mxGeometry y="52" width="110" height="8" as="geometry" />
        </mxCell>
        <mxCell id="aizszBBcRGnNYX09PEaP-13" value="+ operationB()" style="text;align=left;verticalAlign=top;spacingLeft=4;spacingRight=4;overflow=hidden;rotatable=0;points=[[0,0.5],[1,0.5]];portConstraint=eastwest;rounded=0;shadow=0;html=0;" vertex="1" parent="aizszBBcRGnNYX09PEaP-10">
          <mxGeometry y="60" width="110" height="26" as="geometry" />
        </mxCell>
        <mxCell id="aizszBBcRGnNYX09PEaP-14" value="ComponentC" style="swimlane;fontStyle=2;align=center;verticalAlign=top;childLayout=stackLayout;horizontal=1;startSize=26;horizontalStack=0;resizeParent=1;resizeLast=0;collapsible=1;marginBottom=0;rounded=0;shadow=0;strokeWidth=1;" vertex="1" parent="aizszBBcRGnNYX09PEaP-47">
          <mxGeometry x="420" width="110" height="100" as="geometry">
            <mxRectangle x="230" y="140" width="160" height="26" as="alternateBounds" />
          </mxGeometry>
        </mxCell>
        <mxCell id="aizszBBcRGnNYX09PEaP-15" value="- m: Mediator" style="text;align=left;verticalAlign=top;spacingLeft=4;spacingRight=4;overflow=hidden;rotatable=0;points=[[0,0.5],[1,0.5]];portConstraint=eastwest;" vertex="1" parent="aizszBBcRGnNYX09PEaP-14">
          <mxGeometry y="26" width="110" height="26" as="geometry" />
        </mxCell>
        <mxCell id="aizszBBcRGnNYX09PEaP-16" value="" style="line;html=1;strokeWidth=1;align=left;verticalAlign=middle;spacingTop=-1;spacingLeft=3;spacingRight=3;rotatable=0;labelPosition=right;points=[];portConstraint=eastwest;" vertex="1" parent="aizszBBcRGnNYX09PEaP-14">
          <mxGeometry y="52" width="110" height="8" as="geometry" />
        </mxCell>
        <mxCell id="aizszBBcRGnNYX09PEaP-17" value="+ operationC()" style="text;align=left;verticalAlign=top;spacingLeft=4;spacingRight=4;overflow=hidden;rotatable=0;points=[[0,0.5],[1,0.5]];portConstraint=eastwest;rounded=0;shadow=0;html=0;" vertex="1" parent="aizszBBcRGnNYX09PEaP-14">
          <mxGeometry y="60" width="110" height="26" as="geometry" />
        </mxCell>
        <mxCell id="aizszBBcRGnNYX09PEaP-18" value="ComponentD" style="swimlane;fontStyle=2;align=center;verticalAlign=top;childLayout=stackLayout;horizontal=1;startSize=26;horizontalStack=0;resizeParent=1;resizeLast=0;collapsible=1;marginBottom=0;rounded=0;shadow=0;strokeWidth=1;" vertex="1" parent="aizszBBcRGnNYX09PEaP-47">
          <mxGeometry x="420" y="120" width="110" height="100" as="geometry">
            <mxRectangle x="230" y="140" width="160" height="26" as="alternateBounds" />
          </mxGeometry>
        </mxCell>
        <mxCell id="aizszBBcRGnNYX09PEaP-19" value="- m: Mediator" style="text;align=left;verticalAlign=top;spacingLeft=4;spacingRight=4;overflow=hidden;rotatable=0;points=[[0,0.5],[1,0.5]];portConstraint=eastwest;" vertex="1" parent="aizszBBcRGnNYX09PEaP-18">
          <mxGeometry y="26" width="110" height="26" as="geometry" />
        </mxCell>
        <mxCell id="aizszBBcRGnNYX09PEaP-20" value="" style="line;html=1;strokeWidth=1;align=left;verticalAlign=middle;spacingTop=-1;spacingLeft=3;spacingRight=3;rotatable=0;labelPosition=right;points=[];portConstraint=eastwest;" vertex="1" parent="aizszBBcRGnNYX09PEaP-18">
          <mxGeometry y="52" width="110" height="8" as="geometry" />
        </mxCell>
        <mxCell id="aizszBBcRGnNYX09PEaP-21" value="+ operationD()" style="text;align=left;verticalAlign=top;spacingLeft=4;spacingRight=4;overflow=hidden;rotatable=0;points=[[0,0.5],[1,0.5]];portConstraint=eastwest;rounded=0;shadow=0;html=0;" vertex="1" parent="aizszBBcRGnNYX09PEaP-18">
          <mxGeometry y="60" width="110" height="26" as="geometry" />
        </mxCell>
        <mxCell id="aizszBBcRGnNYX09PEaP-42" style="rounded=0;orthogonalLoop=1;jettySize=auto;html=1;endArrow=block;endFill=0;" edge="1" parent="aizszBBcRGnNYX09PEaP-47" source="aizszBBcRGnNYX09PEaP-22" target="aizszBBcRGnNYX09PEaP-1">
          <mxGeometry relative="1" as="geometry" />
        </mxCell>
        <mxCell id="aizszBBcRGnNYX09PEaP-44" style="edgeStyle=orthogonalEdgeStyle;rounded=0;orthogonalLoop=1;jettySize=auto;html=1;" edge="1" parent="aizszBBcRGnNYX09PEaP-47" source="aizszBBcRGnNYX09PEaP-22" target="aizszBBcRGnNYX09PEaP-14">
          <mxGeometry relative="1" as="geometry">
            <Array as="points">
              <mxPoint x="560" y="350" />
              <mxPoint x="560" y="50" />
            </Array>
          </mxGeometry>
        </mxCell>
        <mxCell id="aizszBBcRGnNYX09PEaP-45" style="edgeStyle=orthogonalEdgeStyle;rounded=0;orthogonalLoop=1;jettySize=auto;html=1;" edge="1" parent="aizszBBcRGnNYX09PEaP-47" source="aizszBBcRGnNYX09PEaP-22" target="aizszBBcRGnNYX09PEaP-5">
          <mxGeometry relative="1" as="geometry">
            <Array as="points">
              <mxPoint y="294" />
              <mxPoint y="50" />
            </Array>
          </mxGeometry>
        </mxCell>
        <mxCell id="aizszBBcRGnNYX09PEaP-22" value="ConcreteMediator" style="swimlane;fontStyle=2;align=center;verticalAlign=top;childLayout=stackLayout;horizontal=1;startSize=26;horizontalStack=0;resizeParent=1;resizeLast=0;collapsible=1;marginBottom=0;rounded=0;shadow=0;strokeWidth=1;" vertex="1" parent="aizszBBcRGnNYX09PEaP-47">
          <mxGeometry x="220" y="160" width="160" height="268" as="geometry">
            <mxRectangle x="230" y="140" width="160" height="26" as="alternateBounds" />
          </mxGeometry>
        </mxCell>
        <mxCell id="aizszBBcRGnNYX09PEaP-23" value="- componentA" style="text;align=left;verticalAlign=top;spacingLeft=4;spacingRight=4;overflow=hidden;rotatable=0;points=[[0,0.5],[1,0.5]];portConstraint=eastwest;" vertex="1" parent="aizszBBcRGnNYX09PEaP-22">
          <mxGeometry y="26" width="160" height="26" as="geometry" />
        </mxCell>
        <mxCell id="aizszBBcRGnNYX09PEaP-28" value="- componentB" style="text;align=left;verticalAlign=top;spacingLeft=4;spacingRight=4;overflow=hidden;rotatable=0;points=[[0,0.5],[1,0.5]];portConstraint=eastwest;" vertex="1" parent="aizszBBcRGnNYX09PEaP-22">
          <mxGeometry y="52" width="160" height="26" as="geometry" />
        </mxCell>
        <mxCell id="aizszBBcRGnNYX09PEaP-29" value="- componentC" style="text;align=left;verticalAlign=top;spacingLeft=4;spacingRight=4;overflow=hidden;rotatable=0;points=[[0,0.5],[1,0.5]];portConstraint=eastwest;" vertex="1" parent="aizszBBcRGnNYX09PEaP-22">
          <mxGeometry y="78" width="160" height="26" as="geometry" />
        </mxCell>
        <mxCell id="aizszBBcRGnNYX09PEaP-27" value="- componentD" style="text;align=left;verticalAlign=top;spacingLeft=4;spacingRight=4;overflow=hidden;rotatable=0;points=[[0,0.5],[1,0.5]];portConstraint=eastwest;" vertex="1" parent="aizszBBcRGnNYX09PEaP-22">
          <mxGeometry y="104" width="160" height="26" as="geometry" />
        </mxCell>
        <mxCell id="aizszBBcRGnNYX09PEaP-24" value="" style="line;html=1;strokeWidth=1;align=left;verticalAlign=middle;spacingTop=-1;spacingLeft=3;spacingRight=3;rotatable=0;labelPosition=right;points=[];portConstraint=eastwest;" vertex="1" parent="aizszBBcRGnNYX09PEaP-22">
          <mxGeometry y="130" width="160" height="8" as="geometry" />
        </mxCell>
        <mxCell id="aizszBBcRGnNYX09PEaP-30" value="+ notify(sender)" style="text;strokeColor=none;fillColor=none;align=left;verticalAlign=top;spacingLeft=4;spacingRight=4;overflow=hidden;rotatable=0;points=[[0,0.5],[1,0.5]];portConstraint=eastwest;whiteSpace=wrap;html=1;" vertex="1" parent="aizszBBcRGnNYX09PEaP-22">
          <mxGeometry y="138" width="160" height="26" as="geometry" />
        </mxCell>
        <mxCell id="aizszBBcRGnNYX09PEaP-25" value="+ reactOnA()" style="text;align=left;verticalAlign=top;spacingLeft=4;spacingRight=4;overflow=hidden;rotatable=0;points=[[0,0.5],[1,0.5]];portConstraint=eastwest;rounded=0;shadow=0;html=0;" vertex="1" parent="aizszBBcRGnNYX09PEaP-22">
          <mxGeometry y="164" width="160" height="26" as="geometry" />
        </mxCell>
        <mxCell id="aizszBBcRGnNYX09PEaP-31" value="+ reactOnB()" style="text;align=left;verticalAlign=top;spacingLeft=4;spacingRight=4;overflow=hidden;rotatable=0;points=[[0,0.5],[1,0.5]];portConstraint=eastwest;rounded=0;shadow=0;html=0;" vertex="1" parent="aizszBBcRGnNYX09PEaP-22">
          <mxGeometry y="190" width="160" height="26" as="geometry" />
        </mxCell>
        <mxCell id="aizszBBcRGnNYX09PEaP-32" value="+ reactOnC()" style="text;align=left;verticalAlign=top;spacingLeft=4;spacingRight=4;overflow=hidden;rotatable=0;points=[[0,0.5],[1,0.5]];portConstraint=eastwest;rounded=0;shadow=0;html=0;" vertex="1" parent="aizszBBcRGnNYX09PEaP-22">
          <mxGeometry y="216" width="160" height="26" as="geometry" />
        </mxCell>
        <mxCell id="aizszBBcRGnNYX09PEaP-33" value="+ reactOnD()" style="text;align=left;verticalAlign=top;spacingLeft=4;spacingRight=4;overflow=hidden;rotatable=0;points=[[0,0.5],[1,0.5]];portConstraint=eastwest;rounded=0;shadow=0;html=0;" vertex="1" parent="aizszBBcRGnNYX09PEaP-22">
          <mxGeometry y="242" width="160" height="26" as="geometry" />
        </mxCell>
        <mxCell id="aizszBBcRGnNYX09PEaP-35" value="if (sender == componentA)&lt;br&gt;reactOnA()" style="shape=note2;boundedLbl=1;whiteSpace=wrap;html=1;size=25;verticalAlign=top;align=center;" vertex="1" parent="aizszBBcRGnNYX09PEaP-47">
          <mxGeometry x="60" y="310" width="150" height="70" as="geometry" />
        </mxCell>
        <mxCell id="aizszBBcRGnNYX09PEaP-36" value="m.notify(this)" style="shape=note2;boundedLbl=1;whiteSpace=wrap;html=1;size=25;verticalAlign=top;align=center;" vertex="1" parent="aizszBBcRGnNYX09PEaP-47">
          <mxGeometry x="420" y="250" width="110" height="70" as="geometry" />
        </mxCell>
        <mxCell id="aizszBBcRGnNYX09PEaP-37" style="edgeStyle=orthogonalEdgeStyle;rounded=0;orthogonalLoop=1;jettySize=auto;html=1;entryX=1.011;entryY=0.409;entryDx=0;entryDy=0;entryPerimeter=0;" edge="1" parent="aizszBBcRGnNYX09PEaP-47" source="aizszBBcRGnNYX09PEaP-14" target="aizszBBcRGnNYX09PEaP-1">
          <mxGeometry relative="1" as="geometry" />
        </mxCell>
        <mxCell id="aizszBBcRGnNYX09PEaP-38" style="rounded=0;orthogonalLoop=1;jettySize=auto;html=1;exitX=-0.001;exitY=0.095;exitDx=0;exitDy=0;exitPerimeter=0;entryX=1;entryY=0.5;entryDx=0;entryDy=0;" edge="1" parent="aizszBBcRGnNYX09PEaP-47" source="aizszBBcRGnNYX09PEaP-18" target="aizszBBcRGnNYX09PEaP-4">
          <mxGeometry relative="1" as="geometry" />
        </mxCell>
        <mxCell id="aizszBBcRGnNYX09PEaP-43" style="edgeStyle=orthogonalEdgeStyle;rounded=0;orthogonalLoop=1;jettySize=auto;html=1;entryX=0.988;entryY=0.101;entryDx=0;entryDy=0;entryPerimeter=0;startArrow=diamond;startFill=1;" edge="1" parent="aizszBBcRGnNYX09PEaP-47" source="aizszBBcRGnNYX09PEaP-22" target="aizszBBcRGnNYX09PEaP-18">
          <mxGeometry relative="1" as="geometry">
            <Array as="points">
              <mxPoint x="560" y="350" />
              <mxPoint x="560" y="130" />
            </Array>
          </mxGeometry>
        </mxCell>
        <mxCell id="aizszBBcRGnNYX09PEaP-46" style="edgeStyle=orthogonalEdgeStyle;rounded=0;orthogonalLoop=1;jettySize=auto;html=1;startArrow=diamond;startFill=1;" edge="1" parent="aizszBBcRGnNYX09PEaP-47" source="aizszBBcRGnNYX09PEaP-22" target="aizszBBcRGnNYX09PEaP-10">
          <mxGeometry relative="1" as="geometry">
            <Array as="points">
              <mxPoint y="294" />
              <mxPoint y="130" />
            </Array>
          </mxGeometry>
        </mxCell>
      </root>
    </mxGraphModel>
  </diagram>
</mxfile>
